<?xml version="1.0" encoding="iso-8859-1"?>
<!-- Generator: Adobe Illustrator 19.0.0, SVG Export Plug-In . SVG Version: 6.00 Build 0)  -->
<svg version="1.1" id="Capa_1" xmlns="http://www.w3.org/2000/svg" xmlns:xlink="http://www.w3.org/1999/xlink" x="0px" y="0px"
	 viewBox="0 0 512 512" style="enable-background:new 0 0 512 512;" xml:space="preserve">
<g transform="translate(1 1)">
	<path style="fill:#FFE100;" d="M485.43,502.498H24.57c-9.422,0-17.069-7.647-17.069-17.069V75.776h494.997v409.653
		C502.498,494.852,494.852,502.498,485.43,502.498"/>
	<path style="fill:#FFA800;" d="M476.895,75.777V485.43c0,9.422-7.647,17.069-17.069,17.069h25.603
		c9.422,0,17.069-7.647,17.069-17.069V75.777H476.895z"/>
	<path style="fill:#FFE100;" d="M502.498,75.777H7.501V24.57c0-9.422,7.647-17.069,17.069-17.069H485.43
		c9.422,0,17.069,7.647,17.069,17.069L502.498,75.777L502.498,75.777z"/>
	<path style="fill:#FFA800;" d="M485.43,7.501h-25.603c9.422,0,17.069,7.647,17.069,17.069v51.207h25.603V24.57
		C502.498,15.148,494.852,7.501,485.43,7.501"/>
	<g>
		<path style="fill:#FFFFFF;" d="M33.104,75.777V485.43c0,9.422,7.647,17.069,17.069,17.069H24.57
			c-9.422,0-17.069-7.647-17.069-17.069V75.777H33.104z"/>
		<path style="fill:#FFFFFF;" d="M24.57,7.501h25.603c-9.422,0-17.069,7.647-17.069,17.069v51.207H7.501V24.57
			C7.501,15.148,15.148,7.501,24.57,7.501"/>
	</g>
	<path d="M485.429,511H24.57C10.47,511-1,499.529-1,485.429V75.776c0-4.695,3.806-8.501,8.501-8.501h494.998
		c4.695,0,8.501,3.806,8.501,8.501v409.653C511,499.529,499.529,511,485.429,511z M16.002,84.278V485.43
		c0,4.725,3.843,8.568,8.568,8.568h460.858c4.725,0,8.568-3.844,8.568-8.568V84.278H16.002z"/>
	<path d="M502.499,84.278H7.501C2.806,84.278-1,80.472-1,75.777V24.57C-1,10.47,10.47-1,24.57-1h460.858
		c14.1,0,25.57,11.47,25.57,25.57v51.207C511,80.472,507.194,84.278,502.499,84.278z M16.002,67.276h477.996V24.57
		c0-4.725-3.844-8.568-8.568-8.568H24.57c-4.725,0-8.568,3.844-8.568,8.568V67.276z"/>
	<path d="M50.174,41.639c0,4.711-3.814,8.534-8.534,8.534s-8.535-3.822-8.535-8.534s3.814-8.534,8.534-8.534
		S50.174,36.928,50.174,41.639"/>
	<path d="M84.311,41.639c0,4.711-3.814,8.534-8.534,8.534c-4.72,0-8.534-3.823-8.534-8.534s3.814-8.534,8.534-8.534
		S84.311,36.928,84.311,41.639"/>
	<path d="M118.448,41.639c0,4.711-3.814,8.534-8.534,8.534c-4.72,0-8.534-3.823-8.534-8.534s3.814-8.534,8.534-8.534
		C114.634,33.104,118.448,36.928,118.448,41.639"/>
	<path style="fill:#63D3FD;" d="M314.741,263.534c0,51.847-42.032,93.879-93.879,93.879s-93.879-42.032-93.879-93.879
		s42.032-93.879,93.879-93.879S314.741,211.687,314.741,263.534"/>
	<path style="fill:#3DB9F9;" d="M220.862,169.655c-4.353,0-8.603,0.401-12.802,0.973c45.77,6.264,81.077,45.412,81.077,92.906
		s-35.307,86.641-81.077,92.906c4.199,0.572,8.449,0.973,12.802,0.973c51.847,0,93.879-42.032,93.879-93.879
		S272.708,169.655,220.862,169.655"/>
	<path d="M220.862,365.913c-56.452,0-102.38-45.927-102.38-102.379s45.927-102.38,102.38-102.38
		c56.452,0,102.38,45.927,102.38,102.38S277.314,365.913,220.862,365.913z M220.862,178.156c-47.077,0-85.378,38.3-85.378,85.378
		s38.3,85.377,85.378,85.377s85.378-38.3,85.378-85.377S267.94,178.156,220.862,178.156z"/>
	<path d="M383.014,417.078c-2.005,0-4.017-0.704-5.635-2.138l-92.581-82.032c-3.514-3.113-3.839-8.486-0.726-12.001
		c3.113-3.515,8.487-3.839,12.001-0.726l92.581,82.032c3.514,3.113,3.839,8.486,0.726,12.001
		C387.699,416.111,385.362,417.078,383.014,417.078z"/>
	<path d="M178.196,306.175c-2.584,0-5.137-1.175-6.808-3.401l-25.603-34.138c-2.267-3.021-2.266-7.179,0-10.2l25.603-34.138
		c2.816-3.755,8.147-4.517,11.902-1.7c3.755,2.816,4.518,8.145,1.7,11.902l-21.777,29.037l21.778,29.038
		c2.816,3.755,2.055,9.084-1.7,11.901C181.761,305.62,179.971,306.175,178.196,306.175z"/>
	<path d="M263.527,306.175c-1.774,0-3.563-0.554-5.094-1.701c-3.756-2.816-4.518-8.146-1.7-11.901l21.777-29.038l-21.777-29.038
		c-2.817-3.756-2.056-9.084,1.7-11.902c3.755-2.817,9.084-2.056,11.901,1.7l25.603,34.138c2.267,3.021,2.267,7.179,0,10.2
		l-25.603,34.138C268.665,304.999,266.111,306.174,263.527,306.175z"/>
	<path d="M203.79,314.71c-1.051,0-2.119-0.195-3.154-0.61c-4.36-1.743-6.48-6.69-4.736-11.05l34.137-85.344
		c1.743-4.36,6.693-6.479,11.05-4.736c4.36,1.744,6.48,6.691,4.736,11.05l-34.137,85.345
		C210.356,312.687,207.164,314.71,203.79,314.71z"/>
</g>
<g>
</g>
<g>
</g>
<g>
</g>
<g>
</g>
<g>
</g>
<g>
</g>
<g>
</g>
<g>
</g>
<g>
</g>
<g>
</g>
<g>
</g>
<g>
</g>
<g>
</g>
<g>
</g>
<g>
</g>
</svg>
