<svg version="1.1" id="Capa_1" xmlns="http://www.w3.org/2000/svg" x="0" y="0" viewBox="0 0 512 512" xml:space="preserve"><path d="M485.43 502.498H24.57c-9.422 0-17.069-7.647-17.069-17.069V75.776h494.997v409.653c0 9.423-7.646 17.069-17.068 17.069" fill="#ffe100" transform="translate(1 1)"/><path d="M476.895 75.777V485.43c0 9.422-7.647 17.069-17.069 17.069h25.603c9.422 0 17.069-7.647 17.069-17.069V75.777h-25.603z" fill="#ffa800" transform="translate(1 1)"/><path d="M502.498 75.777H7.501V24.57c0-9.422 7.647-17.069 17.069-17.069h460.86c9.422 0 17.069 7.647 17.069 17.069l-.001 51.207z" fill="#ffe100" transform="translate(1 1)"/><path d="M485.43 7.501h-25.603c9.422 0 17.069 7.647 17.069 17.069v51.207h25.603V24.57c-.001-9.422-7.647-17.069-17.069-17.069" fill="#ffa800" transform="translate(1 1)"/><path d="M33.104 75.777V485.43c0 9.422 7.647 17.069 17.069 17.069H24.57c-9.422 0-17.069-7.647-17.069-17.069V75.777h25.603zM24.57 7.501h25.603c-9.422 0-17.069 7.647-17.069 17.069v51.207H7.501V24.57c0-9.422 7.647-17.069 17.069-17.069" transform="translate(1 1)" fill="#fff"/><path d="M485.429 511H24.57C10.47 511-1 499.529-1 485.429V75.776a8.501 8.501 0 018.501-8.501h494.998A8.501 8.501 0 01511 75.776v409.653c0 14.1-11.471 25.571-25.571 25.571zM16.002 84.278V485.43c0 4.725 3.843 8.568 8.568 8.568h460.858c4.725 0 8.568-3.844 8.568-8.568V84.278H16.002z" transform="translate(1 1)"/><path d="M502.499 84.278H7.501A8.501 8.501 0 01-1 75.777V24.57C-1 10.47 10.47-1 24.57-1h460.858c14.1 0 25.57 11.47 25.57 25.57v51.207a8.498 8.498 0 01-8.499 8.501zM16.002 67.276h477.996V24.57c0-4.725-3.844-8.568-8.568-8.568H24.57c-4.725 0-8.568 3.844-8.568 8.568v42.706z" transform="translate(1 1)"/><path d="M50.174 41.639c0 4.711-3.814 8.534-8.534 8.534s-8.535-3.822-8.535-8.534 3.814-8.534 8.534-8.534 8.535 3.823 8.535 8.534m34.137 0a8.531 8.531 0 01-8.534 8.534c-4.72 0-8.534-3.823-8.534-8.534s3.814-8.534 8.534-8.534 8.534 3.823 8.534 8.534m34.137 0a8.531 8.531 0 01-8.534 8.534c-4.72 0-8.534-3.823-8.534-8.534s3.814-8.534 8.534-8.534a8.53 8.53 0 018.534 8.534" transform="translate(1 1)"/><path d="M314.741 263.534c0 51.847-42.032 93.879-93.879 93.879s-93.879-42.032-93.879-93.879 42.032-93.879 93.879-93.879 93.879 42.032 93.879 93.879" fill="#63d3fd" transform="translate(1 1)"/><path d="M220.862 169.655c-4.353 0-8.603.401-12.802.973 45.77 6.264 81.077 45.412 81.077 92.906s-35.307 86.641-81.077 92.906c4.199.572 8.449.973 12.802.973 51.847 0 93.879-42.032 93.879-93.879s-42.033-93.879-93.879-93.879" fill="#3db9f9" transform="translate(1 1)"/><path d="M220.862 365.913c-56.452 0-102.38-45.927-102.38-102.379s45.927-102.38 102.38-102.38c56.452 0 102.38 45.927 102.38 102.38s-45.928 102.379-102.38 102.379zm0-187.757c-47.077 0-85.378 38.3-85.378 85.378s38.3 85.377 85.378 85.377 85.378-38.3 85.378-85.377-38.3-85.378-85.378-85.378z" transform="translate(1 1)"/><path d="M383.014 417.078a8.467 8.467 0 01-5.635-2.138l-92.581-82.032a8.502 8.502 0 0111.275-12.727l92.581 82.032a8.502 8.502 0 01-5.64 14.865zM178.196 306.175a8.494 8.494 0 01-6.808-3.401l-25.603-34.138a8.5 8.5 0 010-10.2l25.603-34.138A8.503 8.503 0 01184.99 234.5l-21.777 29.037 21.778 29.038a8.502 8.502 0 01-1.7 11.901 8.485 8.485 0 01-5.095 1.699zm85.331 0a8.469 8.469 0 01-5.094-1.701 8.5 8.5 0 01-1.7-11.901l21.777-29.038-21.777-29.038a8.502 8.502 0 0113.601-10.202l25.603 34.138a8.499 8.499 0 010 10.2l-25.603 34.138a8.49 8.49 0 01-6.807 3.404zm-59.737 8.535a8.455 8.455 0 01-3.154-.61 8.5 8.5 0 01-4.736-11.05l34.137-85.344a8.501 8.501 0 0115.786 6.314l-34.137 85.345a8.507 8.507 0 01-7.896 5.345z" transform="translate(1 1)"/></svg>