<svg id="Capa_1" height="512" width="512" xmlns="http://www.w3.org/2000/svg"><path d="M337.83 340.889c5.857 5.858 15.355 5.859 21.213 0l63.676-63.676 63.676 63.676c5.857 5.857 15.355 5.859 21.213 0 5.858-5.858 5.858-15.355 0-21.213L443.931 256l63.676-63.676c5.858-5.858 5.858-15.355 0-21.213-5.857-5.858-15.355-5.858-21.213 0l-63.676 63.676-63.676-63.676c-5.858-5.858-15.356-5.858-21.213 0-5.858 5.858-5.858 15.355 0 21.213L401.505 256l-63.676 63.676c-5.857 5.858-5.857 15.355.001 21.213zM261.797 53.757L93.459 146.428H15c-8.284 0-15 6.716-15 15v189.145c0 8.284 6.716 15 15 15h78.459l168.338 92.671c18.896 10.401 42.013-3.266 42.013-24.83V78.587c0-21.553-23.108-35.237-42.013-24.83zM30 176.428h52.315v159.145H30zm243.81 254.183l-161.495-88.904V170.293L273.81 81.389z"/></svg>